<svg width="70" height="69" viewBox="0 0 70 69" fill="none" xmlns="http://www.w3.org/2000/svg">
<path fill-rule="evenodd" clip-rule="evenodd" d="M27.4092 17.2836C27.4596 19.8131 30.4547 23.88 32.4933 23.1112C33.3742 22.7641 33.3742 22.3921 32.4177 19.6891C30.1274 13.2663 27.3589 15.2501 27.4092 17.2836ZM44.0205 23.012C43.3157 24.9711 45.7571 25.3183 47.4434 23.508C49.1549 21.6481 50.9922 18.8707 51.9737 16.9861C53.056 15.1758 50.9418 14.2582 49.18 15.7461C47.091 17.482 44.4987 21.6481 44.0205 23.012ZM9.33828 21.4993C7.77783 22.1193 13.0129 28.5173 15.127 28.5669C17.5936 28.6165 17.7949 28.0709 16.0834 25.8143C13.3904 22.2433 11.1252 20.7802 9.33828 21.4993ZM32.9967 30.6995C32.0655 31.6171 30.958 32.8818 30.5301 33.477C26.8555 38.883 26.8052 38.9326 25.1189 37.6679C21.2178 34.7913 14.7998 32.8322 16.0582 37.8415C16.8384 40.8669 19.154 46.397 19.758 48.232C21.3185 53.0677 22.149 53.8613 24.9176 53.2165C31.7886 51.5798 41.6044 51.5302 48.6264 53.0925C50.363 53.4893 50.4637 53.2909 50.6399 49.8439C50.9922 42.8756 55.0694 36.0808 55.0694 33.8986C55.0694 31.4435 50.363 33.2786 43.9702 38.2135L43.3158 38.7094L42.3845 38.0895C40.4717 36.8248 39.5153 37.8167 40.5975 39.9246C41.4784 41.6357 42.2083 42.206 44.1463 41.2885C45.2537 40.7677 46.789 39.7758 48.9535 38.2631C49.8093 37.6679 50.514 37.2463 50.514 37.3207C50.514 37.6679 48.9787 44.1651 48.9787 44.1899L45.1531 43.8675C42.1077 43.7435 41.7553 45.3306 44.9014 45.8018C45.2286 45.8514 48.4502 46.2482 48.4502 46.2482C48.4502 46.2482 48.3243 47.6369 47.972 48.4304C47.5944 49.224 46.9652 49.4224 45.9333 49.0752C37.8542 46.4466 24.6911 49.6455 24.6659 49.6455C24.1877 49.7199 19.8084 38.3375 20.1607 37.9903C20.2111 37.9407 20.7396 38.2631 21.3436 38.7094C28.1643 43.5947 28.8691 43.4459 33.3742 36.3288L35.4884 32.981L36.3189 34.1961C38.7351 37.7423 42.158 36.18 40.2452 33.5762C39.5908 32.7082 38.5086 31.4187 36.772 29.41C35.9918 28.4925 34.834 28.8893 32.9967 30.6995ZM65.741 30.3276C64.8349 30.8483 60.1032 35.3121 59.5495 36.1552C58.3666 38.0151 60.8331 38.4367 63.0731 36.7504C65.6906 34.7913 69.3904 31.4187 69.3904 30.9724C69.4156 30.0796 66.9742 29.6332 65.741 30.3276ZM3.39848 42.206C7.07309 43.0988 9.18719 43.322 10.0178 42.8756C11.3769 42.1564 10.7477 41.6357 7.5261 40.8421C7.22407 40.7677 4.25416 39.9494 2.21551 39.9494C0.755736 39.9494 -2.49096 40.7429 3.39848 42.206Z" fill="black"/>
</svg>
