<svg width="70" height="69" viewBox="0 0 70 69" fill="none" xmlns="http://www.w3.org/2000/svg">
<path d="M49.4139 15.6902C41.5861 11.7726 36.7403 15.1698 42.549 16.5165C57.2728 19.9444 59.2918 37.8489 45.1582 47.8571C28.3843 59.7016 7.32378 43.664 18.0094 27.198C22.5446 20.2198 27.6699 16.4553 32.7953 16.3023C37.2994 16.1799 35.8706 13.9456 31.2733 13.9456C19.9353 13.9456 7.72765 28.1774 9.99524 38.7671C11.8279 47.4285 19.0345 53.0601 30.0618 54.4067C55.7508 57.5592 71.22 26.5859 49.4139 15.6902Z" fill="black"/>
<path d="M30.4031 39.4406C29.0364 37.2982 28.9122 37.2064 27.5454 37.2982C23.9732 37.5737 26.334 42.593 30.8381 44.2458C34.5657 45.623 40.3433 44.8885 42.3003 42.8379C45.2512 39.7467 44.5367 34.8497 41.4304 36.8697C41.244 36.9922 40.8093 37.7267 40.4676 38.4612C38.169 43.4806 33.2298 43.9397 30.4031 39.4406Z" fill="black"/>
<path d="M43.9159 29.6469C42.7976 27.0148 41.0582 26.3721 39.8157 28.1472C38.3247 30.3202 39.1634 32.3402 41.5552 32.3402C43.9471 32.3402 44.6924 31.5139 43.9159 29.6469Z" fill="black"/>
<path d="M31.0248 30.0753C31.0248 27.9329 29.627 26.9535 27.7011 27.7492C25.9616 28.4532 25.1539 31.6974 26.3964 32.8299C28.3534 34.5744 31.0248 32.9523 31.0248 30.0753Z" fill="black"/>
</svg>
