<svg width="69" height="69" viewBox="0 0 69 69" fill="none" xmlns="http://www.w3.org/2000/svg">
<path d="M41.5227 11.2984C42.7494 8.80389 41.1546 7.00462 39.4576 8.98792C38.2103 10.4601 36.452 14.6516 36.7587 15.449C37.4743 17.2687 39.4371 15.5512 41.5227 11.2984Z" fill="black"/>
<path d="M29.3164 16.3279C30.6045 16.7369 31.0544 15.9803 30.9112 13.6494C30.6045 9.04899 29.1937 7.14748 26.781 8.10846C25.636 8.55828 27.8851 15.8781 29.3164 16.3279Z" fill="black"/>
<path d="M16.4148 17.5142C19.3182 19.6815 21.3423 20.6425 22.3647 20.2745C23.6323 19.8246 23.4279 19.3953 21.1175 17.5755C18.1732 15.2242 16.5579 14.529 15.0039 14.9379C13.8998 15.2242 14.2475 15.8785 16.4148 17.5142Z" fill="black"/>
<path d="M41.5021 18.291C40.8069 19.0475 40.807 19.068 41.3386 19.4564C42.8516 20.5606 44.4669 19.6814 50.8666 14.2222C52.5841 12.75 49.742 11.5846 47.7383 12.9545C46.6955 13.6701 42.32 17.4118 41.5021 18.291Z" fill="black"/>
<path d="M65.8336 55.1353C65.118 54.5424 64.6477 53.4382 64.4433 51.8639C64.3001 50.7802 62.0102 32.8692 60.9674 28.146C60.1086 24.2203 57.696 22.3597 55.774 22.2575C54.5677 22.1961 53.8725 22.9935 53.3817 22.6868C52.0527 21.8485 51.6847 21.4601 50.3761 21.5827C49.7627 21.6236 48.3928 21.9917 47.9225 22.4006C47.6158 22.6459 47.2274 22.6459 46.3687 22.421C42.1567 21.2965 40.296 25.304 42.1975 31.4175C43.2812 34.9138 44.8351 33.3803 44.3853 29.2706C43.7924 23.8318 43.9151 23.2593 45.6121 23.8727C46.5322 24.1999 46.573 24.2817 46.4913 25.4062C46.3686 26.9806 47.4728 34.1777 47.8817 34.4435C49.0062 35.1796 49.865 33.871 49.4969 31.9286C48.4951 26.4899 49.1698 23.1162 51.1736 23.6274C51.787 23.7909 52.2367 24.343 52.2367 24.9768C52.339 31.1312 52.4003 35.241 54.2814 35.241C55.4673 35.241 55.4673 35.2818 55.2015 29.9453C54.9152 24.2817 55.59 23.975 56.5919 24.2817C58.0436 24.7315 58.1867 28.1256 58.3298 29.0457C58.3298 29.0661 61.5603 50.2895 61.5603 50.3304C61.9488 55.1557 64.9544 59.3882 67.0604 58.0387C67.4898 57.7525 66.6923 55.8509 65.8336 55.1353Z" fill="black"/>
<path d="M15.331 29.3728C15.331 26.0809 15.3719 25.8151 16.0262 25.079C17.1916 23.7091 17.5597 24.9563 17.7846 31.2538C17.9482 35.8543 17.9686 35.9156 18.9501 36.2019C20.2177 36.5903 20.3404 35.9974 20.1973 30.804C20.0542 26.1218 20.0746 25.9582 20.688 25.3448C21.9557 24.0567 22.2215 24.5679 22.7531 29.0047C23.0598 31.7037 23.0189 33.2167 22.5895 35.5476C22.4873 36.1405 22.5895 36.3246 23.0802 36.4677C24.4092 36.8153 24.6341 36.3654 25.0226 32.4806C25.6973 25.7538 24.7773 23.7296 20.9742 23.6887C19.8497 23.6682 18.5616 23.5251 18.1117 23.3206C17.6619 23.1366 16.6396 22.9935 15.8422 23.0139C15.0448 23.0344 13.7362 22.973 12.9592 22.8708C12.0187 22.7481 11.2418 22.8299 10.6897 23.0753C8.3384 24.1589 7.92947 25.4266 5.1692 40.332C4.69894 42.9083 4.16731 46.1184 4.02418 47.4474C3.73793 49.9214 2.87914 52.8044 1.73415 55.1762C0.936735 56.8119 1.12079 57.4048 2.38847 57.4048C4.65802 57.4048 6.78445 53.7244 7.29561 48.8786C7.56141 46.3024 8.0317 45.2392 8.84956 39.3506C10.4035 28.0029 10.6897 26.6943 11.8347 25.3653C13.409 23.5455 13.2659 24.1385 13.4704 34.7297C13.4704 35.1796 13.8793 35.5271 14.3292 35.4862C15.147 35.4249 15.331 34.6684 15.331 29.3728Z" fill="black"/>
<path d="M53.4635 57.5684C52.1754 55.1966 52.0731 55.1149 49.7831 54.8695C47.0024 54.5628 44.8555 53.4792 43.9354 51.9252C41.9113 48.4698 39.0693 39.2893 39.3964 37.2651C39.8462 34.4231 40.7867 34.6276 42.3202 37.8581C43.5265 40.3934 44.324 41.2931 47.166 43.4195C48.4337 44.3601 49.2107 45.1984 49.7218 46.2002C50.3557 47.427 50.5806 47.6315 51.3166 47.6315C53.8315 47.6315 50.8259 42.1723 47.759 41.1909C46.4504 40.7819 46.0415 40.4343 46.0415 39.7596C46.0415 36.386 41.1139 32.726 38.4968 34.1573C36.2477 35.4045 36.0636 37.2856 37.6175 42.9492C40.6027 53.8063 42.2793 56.0145 47.8817 56.5052C50.0694 56.7097 50.601 57.0777 51.7051 59.1428C53.2181 61.9848 54.9561 60.0425 54.6085 59.5926C54.4858 59.4086 53.9747 58.509 53.4635 57.5684Z" fill="black"/>
<path d="M26.2904 35.4864C24.7978 36.1816 23.1826 37.8991 22.4874 39.5348C21.9762 40.7412 21.8331 40.8638 20.6881 41.0479C18.1937 41.4363 16.0264 43.297 15.6992 45.2803C15.413 47.0387 17.2122 47.9383 17.8665 46.3435C18.7252 44.2784 20.4223 42.6836 22.2829 42.2133C23.4279 41.9271 25.718 39.6371 27.6604 36.8973C28.8872 35.1593 29.705 37.5107 28.8462 40.2505C26.1473 48.7153 22.651 53.3771 18.623 53.8269C16.926 54.0313 16.5579 54.3789 15.1062 57.2619C14.1452 59.143 14.1248 59.2452 14.636 59.6132C15.8628 60.5129 17.0282 59.6541 17.8256 57.2823C18.3777 55.6466 18.4391 55.5648 19.6863 55.2581C24.389 54.0518 26.7198 51.2711 30.0935 42.9085C32.6697 36.5292 31.0136 33.2987 26.2904 35.4864Z" fill="black"/>
</svg>
