<svg width="70" height="70" viewBox="0 0 70 70" fill="none" xmlns="http://www.w3.org/2000/svg">
<path fill-rule="evenodd" clip-rule="evenodd" d="M27.4746 11.5962C24.8646 11.5962 23.4803 12.6639 23.4803 13.5735C23.4803 14.9971 24.5085 15.1948 33.2481 15.5903C43.7671 16.0648 53.4955 16.9348 54.0492 17.4885C54.9192 18.3585 55.3146 21.2848 55.0378 24.6462C54.8796 26.5048 54.6424 32.9507 54.4446 39.0012C54.0887 52.6839 55.4331 51.5766 38.8636 51.972L35.5022 52.0511C35.5418 50.7066 35.6604 42.4811 35.7 39.278C37.8354 39.278 39.6148 39.3175 40.8803 39.2384C44.2416 39.0407 43.0159 37.5775 41.2363 36.5889C39.4963 35.6002 37.4795 35.7189 35.3045 35.7189V33.623C35.3045 27.3748 38.7055 23.5389 41.9087 26.1884C44.4396 28.2844 46.6146 27.2166 44.6768 24.8044C39.3778 18.0816 30.2822 22.2339 29.7682 31.5666L29.5704 35.5212L26.6045 35.9166C22.0568 36.5098 23.362 39.278 28.1469 39.278H29.7288C29.8474 42.5602 30.1637 50.8252 30.2428 52.3279C29.0169 52.3675 26.9998 52.1698 21.7007 52.8816C16.7576 53.5143 17.1927 54.6216 16.7182 40.4643C16.125 23.1039 16.6787 18.5166 19.7632 15.0366C20.6728 14.0085 18.5372 11.0821 15.4526 14.3248C11.0631 18.8726 10.3514 23.1039 10.3909 38.9221C10.4305 50.3902 10.7074 54.3448 16.6788 56.4407C19.2888 57.3502 23.3223 57.627 30.4405 57.7852C60.2182 58.4575 59.9808 58.6157 59.348 37.4193C59.1503 30.3407 59.0714 24.053 59.1901 23.4598C60.0996 19.1889 57.4895 14.0876 51.5973 13.0989C45.6259 11.9521 37.44 11.5962 27.4746 11.5962Z" fill="black"/>
</svg>
