<svg width="40" height="40" viewBox="0 0 40 40" fill="none" xmlns="http://www.w3.org/2000/svg">
<path d="M40 20C40 30.05 20 20 20 20C20 20 40 9.94999 40 20Z" fill="#BF9F58"/>
<path d="M1.95244e-07 20C6.34544e-07 30.05 20 20 20 20C20 20 -2.44055e-07 9.94999 1.95244e-07 20Z" fill="#BF9F58"/>
<path d="M30 37.3205C21.2964 42.3455 20 20 20 20C20 20 38.7035 32.2955 30 37.3205Z" fill="#BF9F58"/>
<path d="M9.99998 2.6795C1.29643 7.7045 20 20 20 20C20 20 18.7035 -2.3455 9.99998 2.6795Z" fill="#BF9F58"/>
<path d="M10 37.3205C18.7036 42.3455 20 20 20 20C20 20 1.29647 32.2955 10 37.3205Z" fill="#BF9F58"/>
<path d="M30 2.6795C38.7036 7.7045 20 20 20 20C20 20 21.2965 -2.3455 30 2.6795Z" fill="#BF9F58"/>
</svg>
