<svg width="40" height="40" viewBox="0 0 40 40" fill="none" xmlns="http://www.w3.org/2000/svg">
<path d="M20 40C23.1388 40 25.7203 37.6139 26.0296 34.5566C28.41 36.4998 31.9227 36.3616 34.1421 34.1421C36.3616 31.9227 36.4998 28.41 34.5566 26.0296C37.6139 25.7203 40 23.1388 40 20C40 16.8612 37.6139 14.2797 34.5566 13.9704C36.4998 11.59 36.3616 8.07733 34.1421 5.85786C31.9227 3.63839 28.41 3.50022 26.0296 5.44335C25.7203 2.3861 23.1388 2.48425e-07 20 0C16.8612 -1.37201e-07 14.2797 2.3861 13.9704 5.44335C11.59 3.50022 8.07734 3.63839 5.85786 5.85786C3.63839 8.07733 3.50023 11.59 5.44336 13.9704C2.3861 14.2797 0 16.8612 0 20C0 23.1388 2.3861 25.7203 5.44335 26.0296C3.50022 28.41 3.63839 31.9227 5.85786 34.1421C8.07733 36.3616 11.59 36.4998 13.9704 34.5566C14.2797 37.6139 16.8612 40 20 40Z" fill="#10151C"/>
</svg>
