<svg width="40" height="40" viewBox="0 0 40 40" fill="none" xmlns="http://www.w3.org/2000/svg">
<path d="M19.0831 0.227711C19.7852 -0.0759036 20.2149 -0.0759036 20.917 0.227711C23.3316 1.27183 22.1947 10.1589 21.2382 15.657C23.3249 10.4811 27.0454 2.33064 29.6476 2.71682C30.4042 2.82911 30.7693 3.05568 31.2057 3.68391C32.5806 5.66283 27.9537 11.6613 24.3137 15.8579C28.6545 12.3911 34.8358 8.0114 36.7573 9.46542C37.3673 9.92701 37.5788 10.301 37.6603 11.0616C37.9241 13.5227 30.5967 16.6663 25.3513 18.5911C30.8644 17.6833 38.7899 16.8112 39.7723 19.083C40.0759 19.7852 40.0759 20.2148 39.7723 20.917C38.7899 23.1888 30.8644 22.3167 25.3513 21.4089C30.5967 23.3337 37.9241 26.4774 37.6603 28.9384C37.5788 29.6991 37.3673 30.073 36.7573 30.5346C34.8358 31.9886 28.6546 27.609 24.3138 24.1422C27.9538 28.3388 32.5806 34.3372 31.2058 36.3161C30.7693 36.9443 30.4043 37.1709 29.6476 37.2832C27.0454 37.6694 23.3249 29.5188 21.2382 24.3429C22.1947 29.841 23.3316 38.7282 20.917 39.7723C20.2149 40.0759 19.7852 40.0759 19.0831 39.7723C16.6684 38.7281 17.8055 29.8404 18.762 24.3423C16.6754 29.5182 12.9547 37.6694 10.3524 37.2832C9.59567 37.1709 9.23062 36.9443 8.79416 36.3161C7.41931 34.3372 12.0461 28.3388 15.6862 24.1422C11.3454 27.609 5.16415 31.9886 3.24266 30.5346C2.63266 30.073 2.42109 29.6991 2.33958 28.9384C2.07587 26.4774 9.40322 23.3337 14.6486 21.4089C9.13544 22.3167 1.2101 23.1888 0.227707 20.917C-0.0759048 20.2148 -0.0759048 19.7852 0.227707 19.083C1.2101 16.8112 9.13544 17.6833 14.6486 18.5911C9.40321 16.6663 2.07588 13.5226 2.33958 11.0616C2.42109 10.301 2.63266 9.92701 3.24266 9.46542C5.16417 8.0114 11.3454 12.3911 15.6863 15.8579C12.0462 11.6613 7.41933 5.66283 8.79419 3.68391C9.23065 3.05568 9.5957 2.82911 10.3524 2.71682C12.9547 2.33063 16.6753 10.4817 18.762 15.6576C17.8055 10.1595 16.6684 1.27187 19.0831 0.227711Z" fill="#10151C"/>
</svg>
