<svg width="69" height="69" viewBox="0 0 69 69" fill="none" xmlns="http://www.w3.org/2000/svg">
<path fill-rule="evenodd" clip-rule="evenodd" d="M28.4964 14.0618C23.8485 14.4366 22.8739 14.8489 24.1483 15.8984C24.4857 16.1983 27.7093 16.3107 34.7185 16.2358C47.2751 16.1233 49.2616 16.3482 50.7984 17.9974C52.4102 19.7216 55.4837 20.2464 55.4837 18.7846C55.4837 18.1099 52.8225 15.6735 51.5481 15.1863C48.9993 14.2117 34.9808 13.537 28.4964 14.0618ZM15.7898 16.9479C8.74313 23.9946 12.8662 54.5803 20.625 52.8561C22.0869 52.5188 22.0494 51.994 20.4751 51.3568C17.4391 50.0824 16.6519 47.6086 17.439 41.9487C17.8888 38.7252 17.9637 36.0265 17.7763 28.8299C17.514 18.972 17.7764 17.5851 19.9129 16.873C21.1498 16.4981 20.4751 15.786 18.7884 15.636C17.4016 15.5236 17.0642 15.6735 15.7898 16.9479ZM42.215 21.2209C40.0035 22.9826 41.2404 25.3065 44.4264 25.3065C46.7128 25.3065 47.9872 24.2195 47.9872 22.2704C47.9872 20.3588 44.2015 19.6467 42.215 21.2209ZM52.2227 22.0081C51.1357 25.1566 51.2108 26.9558 51.2108 44.7224C51.0983 45.0598 52.2227 48.9954 47.35 50.045C45.4384 50.4573 42.0274 50.5697 34.7558 50.6447C22.574 50.8321 21.9743 50.9071 23.3237 52.4813C25.4602 55.0676 47.6498 55.6298 52.3726 53.231C55.3712 51.6942 56.6457 45.5096 56.6457 32.3532C56.5708 24.4819 53.722 17.6601 52.2227 22.0081ZM26.4348 28.8299C20.1378 34.7146 26.1348 45.0598 36.8174 43.3356C43.5267 42.2486 45.8508 28.2676 39.2164 28.2676C37.9045 28.2676 37.717 28.8299 38.7665 29.6545C44.164 33.89 38.3167 42.7359 31.7947 40.6368C25.1229 38.5003 26.6222 27.9303 33.9313 27.9303C35.5805 27.9303 36.5925 27.1806 34.9432 26.506C33.5189 25.9062 30.333 25.2316 26.4348 28.8299Z" fill="black"/>
</svg>
