<svg width="255" height="248" viewBox="0 0 255 248" fill="none" xmlns="http://www.w3.org/2000/svg">
<path fill-rule="evenodd" clip-rule="evenodd" d="M94.4083 1.39256C79.924 3.15692 80.3097 2.37274 80.3097 30.4064V55.4995L66.4054 49.8144C36.2781 37.856 31.6424 40.7966 13.4888 84.1213C5.37761 103.333 5.18486 102.941 25.4628 113.331L42.0716 121.761C42.0716 121.761 3.83319 152.539 4.41256 151.951C-0.0292839 156.068 -0.801589 162.733 2.67463 167.634C31.6432 209.979 59.2598 221.741 80.8896 201.157L86.2967 196.06L86.6833 206.646C86.8765 212.527 86.8763 221.937 86.49 227.426C85.5244 247.422 106.575 251.931 167.409 244.874C185.755 242.717 184.597 244.286 183.245 221.937L182.086 202.137L187.687 205.078C207.578 215.468 214.917 211.939 236.74 182.729C258.949 152.931 258.176 155.872 246.203 145.678C232.105 133.523 215.69 120.585 212.986 119.604C223.608 107.842 243.113 85.6896 243.113 85.6896C245.817 82.9451 247.168 79.2203 247.168 75.4955C247.168 71.7708 245.43 68.0461 242.727 65.4976C210.475 35.5035 192.129 28.6421 176.292 40.9926L167.409 47.854C167.409 47.854 166.829 13.7431 166.636 11.5866C165.864 2.76483 127.819 -2.72427 94.4083 1.39256ZM155.435 83.5332C164.125 82.1609 174.361 76.4757 185.176 66.6737C196.571 56.2836 196.377 56.2837 207.386 65.4976C212.214 69.6144 217.041 73.5352 218.2 74.3193C219.552 75.2995 218.2 77.652 214.531 80.9847C178.803 112.547 169.34 126.662 183.631 126.662C186.141 126.662 219.745 154.303 219.745 154.303L197.343 187.238L191.356 183.513C153.117 159.793 142.496 163.517 151.38 197.628C158.718 225.858 159.104 230.367 152.924 230.367C150.414 230.367 119.321 232.915 119.321 232.915L118.162 209.587C117.003 184.298 118.741 135.876 73.3571 176.26C60.2247 188.022 58.4869 190.767 52.5001 184.298C50.762 182.337 35.698 163.713 35.698 163.713C35.698 163.713 58.4871 144.894 63.3152 141.365C86.2969 125.486 83.2067 123.721 56.3626 109.606C46.127 104.117 37.2437 99.2163 36.4712 98.4322C35.6987 97.648 53.0791 63.9292 53.0791 63.9292L71.4258 73.5351C97.3044 87.2579 111.982 89.2183 109.085 72.1629C107.154 60.4005 107.154 17.2718 107.154 17.2718L139.019 16.8797C139.019 16.8797 135.35 52.1668 137.088 70.2025C138.247 78.0441 139.598 85.8856 155.435 83.5332Z" fill="black"/>
</svg>
