<svg width="70" height="69" viewBox="0 0 70 69" fill="none" xmlns="http://www.w3.org/2000/svg">
<path fill-rule="evenodd" clip-rule="evenodd" d="M26.5746 13.3182C25.7254 13.9457 26.327 15.7238 27.6716 16.5955C28.8039 17.3276 33.6516 17.5717 37.1901 17.1184C46.8857 15.8284 52.1934 18.4433 51.6626 24.196C50.9195 32.6332 50.778 38.5951 51.3088 41.454C51.9103 44.7662 51.8396 44.5221 50.7073 43.6853C49.6104 42.8835 47.098 41.2448 45.6826 40.3732C44.5149 39.6759 42.4979 38.6648 42.1086 39.9548C41.4717 42.0816 39.5609 45.3589 37.8624 47.5902C34.0054 52.6456 26.5746 53.7961 20.2053 52.7153C17.516 52.2621 17.4453 51.3556 17.5514 49.3683C17.9053 42.2559 18.4006 23.2895 19.2498 19.2801C19.6745 17.2579 20.1699 16.9092 21.7622 16.456C24.5576 15.689 22.6469 14.3641 19.3561 14.7476C17.0561 15.0266 15.7468 15.8633 14.933 18.8268C13.6945 23.4638 13.836 31.9011 12.9868 49.1591C12.7745 53.2034 15.1806 54.598 18.6484 54.9467C20.7007 55.1559 23.8146 55.2256 29.0516 55.2953C35.5624 55.365 38.8178 55.4696 41.0117 55.1558C43.4886 54.8072 44.5857 53.9356 47.5227 52.018C56.7936 45.8818 56.4396 46.4397 56.475 38.351C56.5458 19.803 53.9273 15.0614 43.241 14.5733C40.1271 14.4339 37.1194 14.0852 35.9871 13.7714C33.0147 12.9695 27.4239 12.6906 26.5746 13.3182ZM32.8731 23.2198C30.29 23.4289 29.4055 25.3116 31.5994 25.9043C33.404 26.3925 42.4625 26.497 45.4702 26.1833C47.3102 25.9741 46.5671 24.6841 45.0809 24.0565C42.8871 23.1152 38.3932 22.7665 32.8731 23.2198ZM28.4147 30.3322C22.3285 30.6111 23.9208 32.2497 26.61 32.7727C32.0593 33.8186 46.5318 33.9581 46.5318 32.5635C46.5318 30.646 39.5964 29.8092 28.4147 30.3322ZM28.45 42.0118C30.9623 41.9421 35.9871 41.5237 36.9071 41.2448C38.4995 40.7567 36.3056 39.0832 33.5455 38.6997C29.8301 38.1767 28.273 38.0373 27.3884 38.107C22.7176 38.351 24.7699 42.1164 28.45 42.0118ZM51.2733 45.9167C50.8487 46.2305 46.7794 50.2748 41.8963 52.2969C40.0563 53.064 39.1009 52.9594 40.304 51.4253C41.2594 49.7169 44.5503 42.5 45.3641 42.5C45.8241 42.5348 51.2733 45.9167 51.2733 45.9167Z" fill="white"/>
</svg>
