<svg width="69" height="70" viewBox="0 0 69 70" fill="none" xmlns="http://www.w3.org/2000/svg">
<path fill-rule="evenodd" clip-rule="evenodd" d="M25.0052 15.2322C9.66145 15.9309 8.6123 17.1288 8.6123 33.3671C8.64509 47.5757 9.82513 52.5004 13.2676 52.5004C13.4644 52.5004 14.7759 52.8997 16.1857 53.3656C23.2347 55.7614 57.0697 53.1992 58.4795 50.1379C59.5942 47.742 60.1842 28.1762 59.3318 22.7191C58.4466 17.1954 56.25 15.4651 50.4469 15.5982C45.4635 15.7313 46.2176 17.8609 51.2666 17.8609C55.037 17.8609 55.0697 17.9607 55.1353 33.6001C55.2008 48.5739 55.2337 48.2079 52.9715 48.7736C48.8405 49.8051 25.0052 50.038 14.776 50.2044C13.8252 48.3743 13.6284 48.9732 12.6776 34.4652C11.7923 20.5562 11.8252 20.4896 21.4315 19.1919C28.1526 18.2935 29.3656 18.1936 36.6769 17.994C43.4636 17.7943 44.5455 17.6612 44.5455 17.1621C44.5127 15.6315 35.5623 14.733 25.0052 15.2322ZM50.7421 20.8557C49.6274 21.7541 47.0699 24.5159 38.6767 33.6001C35.8899 36.6281 35.9884 36.6281 33.1361 34.5983C28.7755 31.537 25.0052 29.2077 22.0545 26.5125C17.8579 22.6858 15.2022 21.1884 14.2842 22.1201C13.7268 22.6858 18.4807 26.6456 24.8083 33.1342L27.5625 35.9626C27.4641 36.0624 21.8249 40.488 19.3004 43.9487C17.5955 46.2779 19.3989 46.7105 20.907 45.6124C22.4807 44.4145 25.1035 41.453 28.9722 37.3934L30.3493 37.9591C32.5459 38.8576 36.7752 38.2586 38.2505 36.861C39.2997 35.8628 40.2507 35.53 40.2507 36.129C40.2507 36.5616 47.1029 43.4163 49.529 45.5459C50.906 46.7438 54.9713 48.0748 51.5288 44.0152C49.0043 41.087 44.021 35.9959 42.2178 34.7314C41.7916 34.432 41.4965 34.1325 41.5621 34.0659C46.3161 30.9381 51.2337 25.6473 52.9385 22.586C55.0696 18.8924 51.2995 20.4231 50.7421 20.8557Z" fill="white"/>
</svg>
