<svg width="69" height="69" viewBox="0 0 69 69" fill="none" xmlns="http://www.w3.org/2000/svg">
<path fill-rule="evenodd" clip-rule="evenodd" d="M33.7084 9.2441C32.5369 10.6424 32.5747 16.122 33.7084 20.0144C34.8799 23.9447 39.1502 26.1743 43.874 25.3807C47.3508 24.8138 57.1765 19.8255 57.0253 18.6918C56.6474 16.1598 53.1328 16.4243 47.1241 19.4476C39.1502 23.4156 38.8479 23.1888 37.0717 11.8894C36.3915 7.58131 34.1997 8.67724 33.7084 9.2441ZM24.6765 16.6511C25.4323 26.6656 23.1649 29.84 14.6998 30.558C11.223 30.8603 10.4293 31.6162 12.5078 32.6743C16.3247 34.6394 24.6386 32.9766 27.095 29.7644C28.909 27.3836 30.3828 14.6481 29.1357 11.965C28.8712 11.3981 23.8073 5.54061 24.6765 16.6511ZM50.1473 28.8196C40.4729 34.0725 37.7142 39.0987 39.7171 47.8661C41.4554 55.3864 43.6852 55.2353 43.9875 47.5638C44.3276 39.2877 44.7432 38.494 51.6211 33.6191C55.8537 30.6336 56.7608 29.5377 55.7026 28.7063C54.7579 27.8749 51.7723 27.9126 50.1473 28.8196ZM32.1968 46.6946C31.2142 41.933 27.1328 39.6655 22.1066 41.0638C18.7432 41.9708 14.8509 44.3894 14.8509 45.5609C14.8509 46.9591 18.0631 47.2615 20.5195 46.1277C21.3131 45.7498 23.0514 45.1074 24.4119 44.6161C24.9031 44.4272 25.4322 44.5028 25.8857 44.7673C26.3391 45.0318 26.6415 45.4853 26.7171 46.0144C27.0195 47.8661 27.4351 50.6626 27.6241 53.0434C28.0776 58.7876 28.72 59.8458 31.7432 59.8458C33.6705 59.7324 33.8596 54.7062 32.1968 46.6946Z" fill="white"/>
</svg>
