<svg width="69" height="70" viewBox="0 0 69 70" fill="none" xmlns="http://www.w3.org/2000/svg">
<path fill-rule="evenodd" clip-rule="evenodd" d="M19.1906 12.0961C16.0281 12.6208 18.1567 14.7503 20.7719 15.1207C22.9613 15.4293 27.1576 15.4293 36.1889 15.3984C47.1968 15.3676 51.9101 15.491 52.6095 15.7996C54.3428 16.602 55.1031 19.6883 55.5896 28.052C55.7721 31.0148 56.1369 35.459 56.4106 37.928C57.262 45.8596 56.4715 46.6312 46.4671 47.0324C42.6052 47.1867 37.5877 47.4953 35.3375 47.7113C24.8162 48.7298 18.2783 48.5446 14.6293 47.0632C11.5884 45.8287 11.7405 44.8411 11.6493 42.7734C11.4364 38.7612 11.5276 30.5827 11.9229 23.1448C12.2574 16.9106 12.6527 15.6762 14.6293 14.7503C15.8456 14.1948 15.4199 13.5467 13.8995 13.6084C11.6189 13.7318 9.85519 14.5034 9.5207 18.1143C9.09498 22.5585 6.38853 46.9707 11.2539 49.0384C14.4468 50.3964 20.0116 51.7235 22.201 51.7235C23.7214 51.7235 23.6607 53.4518 22.1402 53.9147C18.6433 54.9332 21.1063 57.4021 25.7284 57.5873C35.0942 57.8959 48.7781 57.1244 48.8998 56.2294C49.0214 55.3344 47.0448 53.2975 46.0109 53.2975C45.6764 53.2975 45.4635 52.8962 45.4635 52.3098C45.4635 51.4765 45.4635 50.3038 46.4062 50.3038C50.4505 50.3038 52.6095 50.1186 53.8258 49.8408C59.7555 48.5446 59.9988 44.4708 59.938 42.0944C59.7251 32.3727 57.931 23.0832 57.931 20.8919C57.9006 17.0959 55.7113 13.3615 51.0284 12.6825C49.2038 12.127 22.3226 11.5715 19.1906 12.0961ZM35.0639 30.9839C34.699 30.5827 31.1716 26.6015 30.1985 25.583C28.9822 24.3177 27.7354 24.7188 25.1202 27.157C23.7822 28.4223 21.6841 30.305 20.4373 31.3852C16.1193 35.0887 15.7848 36.7552 19.3426 36.7552C20.5589 36.7552 21.1368 36.3231 24.7554 32.5579C29.4383 27.6816 29.0126 27.7125 33.0873 31.7246C35.8241 34.4096 35.4896 34.4405 39.9292 30.9222C43.7607 27.3113 45.9501 24.904 48.7173 22.0956C51.454 19.3179 47.2576 18.0526 45.0378 19.966C42.4227 22.1573 35.0943 30.9531 35.0639 30.9839ZM44.9162 29.5334C44.3688 30.9531 44.6426 40.4278 45.2507 41.0142C46.7407 42.5265 47.653 39.2859 47.5618 32.8665C47.501 29.3173 45.7981 27.1879 44.9162 29.5334ZM27.3097 33.3912C26.367 35.9219 27.1576 42.8351 29.0733 42.4956C30.9891 42.1561 29.6815 34.5331 29.2558 33.422C28.9821 32.6196 27.6138 32.5888 27.3097 33.3912ZM39.6859 34.101C39.1689 34.7491 38.652 39.5328 38.9865 40.829C39.5643 43.1437 41.9665 42.1253 41.9665 39.5637C41.9665 35.2738 40.8718 32.6505 39.6859 34.101ZM22.3834 37.4033C21.9273 37.8663 22.1097 41.3228 22.6571 42.0635C23.6302 43.4215 24.4816 42.5574 24.4816 40.1809C24.4512 37.712 23.4173 36.3231 22.3834 37.4033ZM32.8744 37.4033C32.0838 38.2058 32.6311 41.508 33.6042 41.9709C35.155 42.6807 35.672 40.7364 34.7293 37.6502C34.5773 37.0946 33.3305 36.9404 32.8744 37.4033ZM40.7199 50.8285C41.9362 51.168 41.4801 52.279 41.6017 53.2975L27.5529 53.5443C27.5529 53.4517 27.7963 51.0136 27.7963 51.1679C28.7693 51.1371 37.679 50.7667 38.8954 50.6742C39.3819 50.6124 40.2333 50.705 40.7199 50.8285Z" fill="white"/>
</svg>
