<svg width="53" height="55" viewBox="0 0 53 55" fill="none" xmlns="http://www.w3.org/2000/svg">
<g clip-path="url(#clip0_2053_37)">
<path d="M24.9522 0.625001C14.0302 2.97215 9.91072 19.9821 18.5021 27.134C30.1289 36.7986 39.9938 28.0727 41.8367 24.4277C42.0808 23.9583 42.65 23.2957 43.0836 22.9918C46.0919 20.8105 45.9293 15.4534 43.9781 10.6763C40.3464 1.70193 30.5623 -0.562375 24.9522 0.625001ZM17.8786 9.8755C21.7542 3.88338 26.47 1.64669 32.6764 2.86169C38.2053 3.96622 42.8397 9.15756 42.8397 14.266C42.8397 15.0944 42.8126 15.0944 41.6472 15.0116C40.1838 14.9011 38.0968 15.7571 37.8258 16.5855C37.609 17.3035 37.3922 17.3035 36.0912 16.6408C33.8147 15.4534 32.1614 12.5264 31.5924 8.68811C31.0774 5.23643 29.8307 3.9662 28.2317 5.26404C25.3589 7.61118 16.4694 14.1003 16.3339 13.9623C16.1171 13.7966 17.2011 10.8972 17.8786 9.8755ZM18.8001 14.7078C21.6459 12.913 26.3615 9.37845 27.256 8.35675C27.9064 7.63881 28.2046 7.63879 28.2046 8.41197C28.2317 12.9682 32.3511 17.414 37.2567 18.1319L37.7986 18.2147C38.8286 18.3804 39.8855 18.1319 40.7257 17.5244L41.1593 17.2207C41.3761 17.0826 41.6472 17.0274 41.8911 17.1102C42.135 17.193 42.3518 17.3587 42.4332 17.6072C42.948 18.8775 42.5415 20.5618 41.4846 21.5835C35.2511 27.6309 32.3782 29.0392 27.0933 28.625C21.0767 28.1279 15.9815 22.6606 15.9815 16.6684C16.0086 16.5579 17.2552 15.6743 18.8001 14.7078Z" fill="white"/>
<path d="M44.7638 46.6013C42.5686 39.6703 39.0452 35.9148 33.6248 34.6446C32.2426 34.3132 29.5054 33.2639 21.9168 34.0647C14.8431 34.8379 9.39566 42.6249 8.14897 45.7451C5.41165 52.4552 13.0544 54.7473 33.5707 54.4434C35.3594 54.0568 47.8263 56.2659 44.7638 46.6013ZM25.8465 35.4454C26.9848 35.2521 29.8036 34.976 32.5952 36.4119C32.7305 36.4671 32.8118 36.6052 32.839 36.7432C32.8661 36.8813 32.812 37.0194 32.7305 37.1298C30.8064 39.1732 28.4214 39.477 27.4186 39.5322C27.1204 39.5322 26.8222 39.3941 26.6595 39.1732C26.253 38.6486 25.6028 37.5715 25.3858 36.1632C25.3317 35.8044 25.5485 35.5006 25.8465 35.4454ZM26.4971 41.7137C26.1447 42.7076 22.1065 47.3743 21.5644 47.0982C21.0225 46.8222 22.1607 41.7413 22.9467 40.8299C23.7326 39.8912 26.8495 40.7196 26.4971 41.7137ZM18.1767 37.1022C19.1253 35.9977 21.3476 35.6111 22.6214 35.5282C22.7299 35.5282 22.8111 35.5557 22.8652 35.6387C22.9196 35.7215 22.9467 35.8044 22.9196 35.9148C22.0795 38.5105 18.3665 39.3113 18.0955 39.2561C17.7973 39.2007 17.445 38.2896 18.1767 37.1022ZM15.1142 41.824C14.4638 43.5914 14.1114 46.0214 14.1114 48.5893C14.1114 51.1299 14.0843 51.1574 12.2414 50.6051C10.1545 49.9976 9.63951 48.7826 10.6694 46.9601L11.2657 45.8557L11.6722 47.3191C12.5666 50.4948 13.4339 48.6723 12.7563 45.0824C12.4853 43.6466 12.6209 43.2875 14.1657 41.5756C15.4666 40.1673 15.7105 40.2224 15.1142 41.824ZM16.4422 46.5737C16.0628 46.408 16.7946 42.5973 17.4179 41.4928C18.0413 40.3882 20.3719 39.8358 20.5887 40.5815C20.8326 41.3547 16.8216 46.7668 16.4422 46.5737ZM42.3247 50.2739C42.2705 50.7708 40.7798 51.6544 39.0452 52.1791C37.4462 52.6761 22.486 52.5933 20.7785 52.0686L19.9927 51.8477L22.5672 48.9483C27.4728 43.4257 31.7548 39.8912 34.4379 39.2007C36.5248 38.6486 36.4165 38.8143 39.3705 42.1831C37.2567 43.0942 37.4733 43.1772 36.0098 42.4316C33.7604 41.2719 33.0015 41.8241 34.0586 43.8399C34.5734 44.834 34.6549 44.7788 31.0774 46.325C27.3372 47.9542 25.2504 49.1968 25.2504 49.8319C25.2504 50.6881 25.9008 50.5499 28.7736 49.1141C35.3323 45.8005 36.6875 46.1871 35.8201 44.5303C35.4408 43.8399 35.8201 43.8399 36.9855 44.5579C38.5304 45.5242 38.9911 45.0549 40.6442 44.0056C41.4031 45.8832 42.5144 48.2857 42.3247 50.2739Z" fill="white"/>
</g>
<defs>
<clipPath id="clip0_2053_37">
<rect width="53" height="54" fill="white" transform="translate(0 0.243408)"/>
</clipPath>
</defs>
</svg>
