<svg width="87" height="34" viewBox="0 0 87 34" fill="none" xmlns="http://www.w3.org/2000/svg">
<g clip-path="url(#clip0_25_177)">
<path d="M20.6486 0.152588C17.2515 0.152588 13.9935 1.5021 11.5913 3.90427L3.75168 11.7439C1.34952 14.146 0 17.404 0 20.8012C0 27.8755 5.7348 33.6103 12.8091 33.6103C16.2062 33.6103 19.4642 32.2607 21.8664 29.8586L27.2891 24.4358C27.2891 24.4357 27.2892 24.436 27.2891 24.4358L43.089 8.6359C44.2363 7.48864 45.7923 6.84413 47.4148 6.84413C50.1311 6.84413 52.434 8.6145 53.2324 11.0643L58.2188 6.0779C55.944 2.51508 51.9553 0.152588 47.4148 0.152588C44.0176 0.152588 40.7596 1.5021 38.3575 3.90427L17.1348 25.127C15.9875 26.2742 14.4315 26.9187 12.8091 26.9187C9.43043 26.9187 6.69154 24.1799 6.69154 20.8012C6.69154 19.1788 7.33606 17.6227 8.48331 16.4755L16.3229 8.6359C17.4702 7.48864 19.0262 6.84413 20.6486 6.84413C23.3651 6.84413 25.6678 8.61457 26.4663 11.0645L31.4528 6.07802C29.178 2.51515 25.1893 0.152588 20.6486 0.152588Z" fill="#10151C"/>
<path d="M43.9011 25.127C42.7538 26.2742 41.1978 26.9187 39.5753 26.9187C36.8593 26.9187 34.5567 25.1488 33.758 22.6994L28.7717 27.6857C31.0466 31.2481 35.0351 33.6103 39.5753 33.6103C42.9725 33.6103 46.2305 32.2607 48.6327 29.8586L69.8553 8.6359C71.0026 7.48864 72.5586 6.84413 74.1811 6.84413C77.5597 6.84413 80.2986 9.58302 80.2986 12.9616C80.2986 14.5841 79.6541 16.1401 78.5068 17.2874L70.6672 25.127C69.52 26.2742 67.964 26.9187 66.3415 26.9187C63.6253 26.9187 61.3225 25.1485 60.524 22.6988L55.5377 27.6853C57.8124 31.2479 61.801 33.6103 66.3415 33.6103C69.7387 33.6103 72.9967 32.2607 75.3988 29.8586L83.2384 22.019C85.6405 19.6168 86.9901 16.3588 86.9901 12.9616C86.9901 5.88739 81.2554 0.152588 74.1811 0.152588C70.7839 0.152588 67.5259 1.5021 65.1237 3.90427L43.9011 25.127Z" fill="#10151C"/>
</g>
<defs>
<clipPath id="clip0_25_177">
<rect width="86.99" height="33.4577" fill="white" transform="translate(0 0.152588)"/>
</clipPath>
</defs>
</svg>
