<svg width="73" height="52" viewBox="0 0 73 52" fill="none" xmlns="http://www.w3.org/2000/svg">
<path fill-rule="evenodd" clip-rule="evenodd" d="M18.3498 7.80747L0.25293 25.7223C3.87263 29.3057 8.00757 32.3257 12.5158 34.6883C13.762 37.9605 15.7152 41.0292 18.3755 43.6628C28.3845 53.571 44.612 53.571 54.6207 43.6628C57.2811 41.0292 59.2344 37.9605 60.4805 34.6881C64.9887 32.3257 69.1237 29.3057 72.7433 25.7223L54.6612 7.82204C54.6477 7.80864 54.6343 7.79525 54.6207 7.78188C44.612 -2.12635 28.3845 -2.12635 18.3755 7.78188C18.367 7.79041 18.3584 7.79893 18.3498 7.80747ZM52.8891 37.9205C47.6154 39.6824 42.0794 40.5847 36.4981 40.5847C30.9169 40.5847 25.381 39.6824 20.1073 37.9205C20.6787 38.671 21.3096 39.3911 22.0001 40.0747C30.0072 48.0014 42.9891 48.0014 50.9962 40.0747C51.6867 39.3911 52.3177 38.671 52.8891 37.9205ZM22.3717 11.0111C23.7315 11.9004 25.1773 12.6614 26.6902 13.2818C29.7997 14.5569 33.1324 15.2131 36.4981 15.2131C39.8639 15.2131 43.1966 14.5569 46.3061 13.2818C47.819 12.6614 49.2648 11.9004 50.6247 11.0111C42.7175 3.56299 30.2788 3.56301 22.3717 11.0111Z" fill="#10151C"/>
</svg>
