<svg width="73" height="74" viewBox="0 0 73 74" fill="none" xmlns="http://www.w3.org/2000/svg">
<path fill-rule="evenodd" clip-rule="evenodd" d="M18.3719 0.754761C28.3806 0.754761 36.4945 8.86852 36.4945 18.8774V0.754761H54.6171C64.6258 0.754761 72.7397 8.86852 72.7397 18.8774C72.7397 28.8861 64.6258 37 54.6171 37C64.6258 37 72.7397 45.1138 72.7397 55.1226C72.7397 60.0923 70.7391 64.5949 67.4995 67.8689L67.4318 67.9372L67.3716 67.9971C64.0968 71.2414 59.591 73.2452 54.6171 73.2452C49.677 73.2452 45.1986 71.2685 41.9294 68.063C41.887 68.0213 41.8446 67.9793 41.8024 67.9372C41.7627 67.8976 41.7232 67.8577 41.6839 67.8176C38.4742 64.548 36.4945 60.0664 36.4945 55.1226C36.4945 65.1313 28.3806 73.2452 18.3719 73.2452C8.36303 73.2452 0.249268 65.1313 0.249268 55.1226V37H18.3719C8.36303 37 0.249268 28.8861 0.249268 18.8774C0.249268 8.86852 8.36303 0.754761 18.3719 0.754761ZM32.87 18.8774C32.87 26.8845 26.379 33.3754 18.3719 33.3754V4.37928C26.379 4.37928 32.87 10.8703 32.87 18.8774ZM69.1152 55.1226C69.1152 47.1155 62.6242 40.6245 54.6171 40.6245C46.61 40.6245 40.119 47.1155 40.119 55.1226H69.1152ZM3.87379 40.6245V55.1226C3.87379 63.1297 10.3648 69.6207 18.3719 69.6207C26.379 69.6207 32.87 63.1297 32.87 55.1226V40.6245H3.87379ZM40.119 33.3754V4.37928H54.6171C62.6242 4.37928 69.1152 10.8703 69.1152 18.8774C69.1152 26.8845 62.6242 33.3754 54.6171 33.3754H40.119Z" fill="#10151C"/>
</svg>
