<svg width="86" height="53" viewBox="0 0 86 53" fill="none" xmlns="http://www.w3.org/2000/svg">
<g clip-path="url(#clip0_25_115)">
<path d="M80.5573 6.8108C80.5573 6.87208 80.5573 6.94868 80.5414 6.99464C80.4616 7.59211 80.4616 8.18959 80.5094 8.80238C80.5414 8.95558 80.5733 9.10878 80.701 9.23134C80.9085 9.46113 81.2277 9.41518 81.3554 9.13942C81.4193 9.00155 81.4193 8.86366 81.3873 8.72578C81.2277 8.14362 81.1958 7.53084 81.1798 6.93335C81.1798 6.90272 81.1798 6.85675 81.1798 6.8108C81.3554 6.79548 81.5151 6.78015 81.6587 6.78015C81.7705 6.76484 81.8662 6.74952 81.9461 6.70355C82.1854 6.581 82.1854 6.32057 81.93 6.19801C81.8342 6.15204 81.7066 6.13672 81.5949 6.13672C81.1958 6.15204 80.7968 6.15204 80.3977 6.15204C80.2541 6.15204 80.1104 6.16737 79.9667 6.18268C79.8869 6.19801 79.7911 6.19801 79.7273 6.24397C79.6155 6.28992 79.5518 6.36652 79.5518 6.47375C79.5677 6.581 79.6155 6.64228 79.7273 6.68824C79.7911 6.7342 79.8709 6.74952 79.9507 6.74952C80.1423 6.76484 80.3499 6.79548 80.5573 6.8108ZM84.9468 7.51551C84.9468 7.53084 84.9628 7.54615 84.9628 7.54615C85.0266 7.95979 85.0905 8.35811 85.1383 8.75642C85.1544 8.8943 85.1703 9.01686 85.2661 9.1241C85.4736 9.38453 85.7929 9.35389 85.9364 9.07815C86.0003 8.94026 86.0163 8.80238 85.9844 8.64918C85.8886 8.18959 85.8407 7.72999 85.7449 7.28571C85.681 7.00995 85.6013 6.74952 85.5215 6.5044C85.4736 6.3512 85.3619 6.24396 85.1703 6.22864C84.9788 6.19801 84.8351 6.28992 84.7553 6.4278C84.6595 6.55035 84.5797 6.67292 84.5158 6.8108C84.4041 7.05592 84.3084 7.30104 84.1807 7.53084C84.1647 7.59211 84.1487 7.63808 84.1168 7.68403C84.1009 7.65339 84.085 7.63808 84.085 7.63808C83.8774 7.25508 83.6858 6.87208 83.4784 6.5044C83.4464 6.47375 83.4304 6.44312 83.4145 6.41248C83.3187 6.27461 83.207 6.19801 83.0314 6.19801C82.8718 6.21332 82.744 6.30524 82.6643 6.44312C82.6323 6.5044 82.6323 6.55035 82.6164 6.61164C82.5525 7.10188 82.4727 7.59211 82.4089 8.08235C82.3769 8.35811 82.361 8.63386 82.361 8.90962C82.3451 8.9709 82.361 9.0475 82.3929 9.10878C82.4249 9.23133 82.5206 9.30794 82.6483 9.32326C82.8079 9.33858 82.9196 9.29262 82.9676 9.17006C83.0154 9.07815 83.0314 9.00155 83.0474 8.92495C83.1113 8.64918 83.1591 8.38875 83.207 8.12831C83.2389 7.97511 83.2548 7.85255 83.3028 7.68403C83.3347 7.74531 83.3666 7.79127 83.3986 7.83722C83.5421 8.02107 83.6858 8.20491 83.8614 8.35811C84.037 8.48066 84.1807 8.46535 84.3243 8.32746C84.3563 8.29682 84.3722 8.28151 84.4041 8.25086C84.5478 8.03639 84.7234 7.82191 84.867 7.60743C84.899 7.57679 84.9149 7.54615 84.9468 7.51551Z" fill="#10151C"/>
<path d="M48.1684 7.11194C48.0574 7.40308 48.0363 7.61284 48.0875 7.78718C48.1441 8.02425 48.2909 8.10187 48.4903 8.04157C50.3651 7.59661 54.4763 8.85961 55.9984 9.21163C56.3574 9.28554 56.6494 8.84079 56.4045 8.44203C56.047 8.05587 51.9376 6.40256 50.3696 6.31241C49.755 6.27907 48.6562 6.12781 48.1684 7.11194Z" fill="#10151C"/>
<path d="M64.2359 1.75985C64.4357 1.87054 64.5474 1.97613 64.6025 2.0941C64.6846 2.24885 64.6413 2.35592 64.5033 2.41056C63.264 2.99108 61.6149 5.49035 60.9492 6.35232C60.7878 6.55061 60.4156 6.43538 60.3594 6.1093C60.3709 5.7406 61.8328 3.02834 62.6487 2.28961C62.9693 2.00119 63.499 1.43527 64.2359 1.75985Z" fill="#10151C"/>
<path d="M54.3667 0.529631C54.6068 0.355986 54.8562 0.295136 54.9836 0.407983C56.8535 1.94278 57.8451 4.37327 58.4591 6.59833C58.4822 6.65017 58.4836 6.72456 58.4651 6.80217C58.4575 6.86849 58.407 6.93856 58.3268 6.99277C58.2411 7.05263 58.1674 7.07086 58.1327 7.01928C57.3132 5.94945 52.6325 1.78693 54.3667 0.529631Z" fill="#10151C"/>
<path d="M14.77 27.1392C15.2182 26.819 15.7054 26.5524 16.2209 26.3455C16.7603 26.1975 17.3353 26.222 17.8589 26.4155C18.3823 26.609 18.8261 26.9608 19.1228 27.4178C19.3881 27.8736 19.4919 28.3998 19.4187 28.9173C19.3454 29.4346 19.099 29.9151 18.7165 30.2865C18.4199 30.5875 18.0832 30.8497 17.7154 31.0663C16.0759 32.0829 14.4218 33.0437 12.7677 34.0603C12.4293 34.3147 12.0702 34.543 11.694 34.7427C11.1218 35.0166 10.4678 35.0899 9.84521 34.9501C9.2226 34.8103 8.67048 34.466 8.28434 33.9768C7.99568 33.6304 7.75207 33.2517 7.55887 32.8488C5.99187 29.6877 4.36684 26.5405 2.85787 23.3236C2.16142 21.9311 1.59557 20.3296 1.04421 18.7839C0.805674 18.3347 0.759092 17.8141 0.914388 17.3325C1.06968 16.8509 1.41461 16.4464 1.87578 16.2052C2.33696 15.9639 2.878 15.9049 3.38385 16.0406C3.8897 16.1763 4.32045 16.496 4.58447 16.9317C5.39602 17.9669 6.11441 19.0663 6.73185 20.2183C8.29885 23.0034 9.79331 25.7884 11.3023 28.49C11.3901 28.6393 11.487 28.7834 11.5925 28.9217C12.7282 28.4634 13.7964 27.8641 14.77 27.1392Z" fill="#10151C"/>
<path d="M30.9721 26.1676C27.3883 30.192 21.3815 29.1754 18.3635 23.9951C16.2161 20.3188 15.8389 14.2472 20.511 10.4176C21.5086 9.61586 22.7016 9.0697 23.9786 8.83007C25.5444 8.61463 27.1411 8.87975 28.5404 9.58755C29.9397 10.2954 31.0701 11.4096 31.7702 12.7711C34.3237 17.2273 33.961 22.9089 30.9721 26.1676ZM29.5211 16.7816C29.1404 15.6866 28.3766 14.7517 27.3593 14.1357C26.7836 13.7419 26.084 13.5504 25.3785 13.5936C24.6729 13.6367 24.0044 13.9118 23.4853 14.3725C21.4105 16.1411 20.9752 20.3327 22.4841 22.8254C22.6765 23.2319 22.9589 23.5931 23.3119 23.8838C23.6649 24.1745 24.0798 24.3877 24.5276 24.5084C24.9754 24.6291 25.4452 24.6545 25.9043 24.5827C26.3634 24.5108 26.8005 24.3436 27.1852 24.0926C28.3099 23.2557 29.1351 22.1033 29.5458 20.7956C29.9568 19.4878 29.9329 18.0897 29.4777 16.7956L29.5211 16.7816Z" fill="#10151C"/>
<path d="M45.5973 18.5363C45.2305 18.612 44.8514 18.6165 44.4826 18.5495C44.1139 18.4825 43.7628 18.3455 43.4501 18.1464C43.1764 17.9961 42.9408 17.7896 42.7602 17.5415C42.5798 17.2935 42.4588 17.0101 42.4062 16.7118C42.3533 16.4135 42.3703 16.1077 42.4553 15.8164C42.5405 15.5251 42.692 15.2555 42.8987 15.027C43.2589 14.5679 43.7702 14.2391 44.3496 14.094C45.8625 13.6726 47.4199 13.4157 48.9926 13.3281C49.3382 13.2896 49.6882 13.3176 50.0222 13.4107C50.3564 13.5038 50.6676 13.66 50.938 13.8702C51.2083 14.0803 51.4322 14.3402 51.5964 14.6345C51.7606 14.9288 51.8619 15.2517 51.8944 15.5841C52.3478 17.2169 52.3975 18.9289 52.0395 20.5834C50.7337 25.9308 46.2358 27.769 41.1866 26.0561C39.7692 25.5982 38.5265 24.7449 37.6173 23.6053C36.4046 22.2328 35.5448 20.6064 35.1072 18.8566C34.7526 17.2985 34.7914 15.6817 35.2206 14.141C35.6496 12.6002 36.4565 11.1803 37.5737 9.99988C38.6341 8.71684 40.0103 7.7071 41.5784 7.06156C42.5692 6.53738 43.7287 6.38833 44.8284 6.64379C45.0779 6.71006 45.3043 6.83918 45.4843 7.01776C45.6643 7.19635 45.7912 7.41788 45.8519 7.65941C45.9126 7.90093 45.9048 8.15364 45.8295 8.39133C45.7541 8.62901 45.6139 8.84302 45.4233 9.01115C45.061 9.32595 44.6673 9.60581 44.248 9.84669C42.9581 10.6351 41.8356 11.651 40.9399 12.8407C40.3528 13.6105 39.9485 14.4945 39.7555 15.4304C39.5624 16.3662 39.5854 17.3313 39.8228 18.2578C40.1518 19.5211 40.882 20.655 41.912 21.5024C45.1041 24.2876 49.2537 21.5999 48.5283 17.7982C47.4692 18.0489 46.5405 18.3135 45.5973 18.5363Z" fill="#10151C"/>
<path d="M65.0977 26.3904C60.3822 29.1756 55.0138 26.3904 53.8385 20.5417C52.9825 16.364 54.6075 10.5152 60.2952 8.2871C61.5053 7.82324 62.8179 7.66038 64.1111 7.81363C65.6649 8.08662 67.0902 8.82076 68.1861 9.91256C69.2819 11.0044 69.9933 12.3987 70.2195 13.8992C71.1771 18.8706 69.0007 24.1763 65.0977 26.3904ZM66.7374 17.0185C66.7359 15.8616 66.3095 14.7422 65.5331 13.8574C65.118 13.3101 64.518 12.9179 63.8354 12.7477C63.1527 12.5776 62.4297 12.64 61.7896 12.9244C59.236 13.9827 57.4368 17.8261 58.0898 20.6532C58.1397 21.0968 58.2898 21.5246 58.5299 21.9067C58.77 22.2888 59.0941 22.616 59.4797 22.8654C59.8652 23.1147 60.3029 23.2802 60.762 23.3503C61.2212 23.4203 61.6908 23.3933 62.1378 23.2711C63.4876 22.8186 64.6564 21.9728 65.4809 20.8518C66.3055 19.7308 66.7448 18.3906 66.7374 17.0185Z" fill="#10151C"/>
<path d="M74.9882 27.5602C74.9171 28.0699 74.6379 28.5316 74.212 28.8437C73.7862 29.1557 73.2486 29.2927 72.7176 29.2243C72.1866 29.156 71.7056 28.888 71.3804 28.4792C71.0552 28.0706 70.9126 27.5546 70.9837 27.0449C71.0549 26.5353 71.3342 26.0736 71.7599 25.7615C72.1858 25.4494 72.7234 25.3125 73.2544 25.3808C73.7854 25.4492 74.2664 25.7171 74.5917 26.1258C74.9168 26.5346 75.0595 27.0506 74.9882 27.5602ZM73.7259 8.77445C74.0019 8.36995 74.4067 8.06192 74.8801 7.89628C75.3533 7.73065 75.8697 7.71629 76.3522 7.85536C76.8426 7.97315 77.276 8.24908 77.5798 8.63695C77.8835 9.02483 78.0391 9.50109 78.0208 9.98599C77.9568 10.7638 77.8356 11.5363 77.658 12.2976C77.1792 14.8739 76.7149 17.4501 76.2071 19.9986C75.9749 21.0152 75.6703 21.9899 75.3365 23.0204C75.2204 23.3425 75.0264 23.6336 74.7707 23.8699C74.6116 24.0476 74.4086 24.1839 74.18 24.2662C73.9515 24.3486 73.7051 24.3743 73.4636 24.341C73.222 24.3076 72.993 24.2164 72.798 24.0757C72.6029 23.9349 72.448 23.7491 72.3477 23.5357C72.1751 23.1527 72.0814 22.7412 72.0719 22.3241C72.0719 20.5973 72.0719 18.8567 72.188 17.1159C72.3853 14.6317 72.7732 12.1648 73.3487 9.73532C73.4165 9.40984 73.5441 9.09858 73.7259 8.81623V8.77445Z" fill="#10151C"/>
<path fill-rule="evenodd" clip-rule="evenodd" d="M8.63985 38.7506C8.46854 39.1176 8.42156 39.5268 8.50527 39.9207C8.56097 40.4398 8.68329 40.9504 8.86946 41.4408C9.1019 42.0414 9.36199 42.6353 9.68269 43.3672C9.75644 43.5356 9.83351 43.7115 9.91416 43.8965C10.3466 44.8881 10.8893 46.1554 11.6131 47.9895C11.818 48.5105 11.9999 49.0358 12.1831 49.5647C12.2571 49.7784 12.3314 49.9928 12.4074 50.2077C12.6799 50.9717 13.1488 51.658 13.7704 52.2019C14.0343 52.5009 14.3844 52.7188 14.7769 52.8277C15.1771 52.9388 15.6028 52.9317 15.9987 52.8075C16.3946 52.6832 16.7424 52.4474 16.9968 52.1307C17.2463 51.8203 17.3946 51.4462 17.4235 51.0554C17.5853 50.294 17.53 49.5046 17.2633 48.7707C16.84 47.552 16.3578 46.3315 15.8017 45.1377L15.7991 45.1325C14.8844 43.2649 13.9545 41.4101 12.9806 39.5547L12.9733 39.5417C12.6882 39.0583 12.3177 38.6261 11.8784 38.2647C11.5933 37.9421 11.1999 37.7244 10.7655 37.6494C10.3219 37.5729 9.86428 37.65 9.47449 37.8673C9.10575 38.0694 8.81345 38.3786 8.63985 38.7506Z" fill="#10151C"/>
<path fill-rule="evenodd" clip-rule="evenodd" d="M22.6119 34.1518C21.1775 33.7952 19.6795 33.7433 18.2222 33.9996C17.0935 34.1063 15.9835 34.3561 15.2126 34.8511C14.8206 35.103 14.5036 35.4265 14.3273 35.8376C14.15 36.251 14.1273 36.7238 14.2726 37.2505C14.5379 38.2154 14.8824 39.1535 15.2256 40.0886L15.2812 40.2401L15.2826 40.2434C16.3161 42.9601 17.3595 45.6675 18.4124 48.3657C18.5352 48.7909 18.7088 49.201 18.9298 49.5879L18.934 49.5951C19.2259 50.0757 19.6003 50.5056 20.0414 50.8667C20.262 51.0652 20.5348 51.2026 20.8306 51.264C21.1293 51.3258 21.44 51.3079 21.7287 51.2119C22.0176 51.116 22.2734 50.9458 22.4683 50.7198C22.6601 50.4975 22.7856 50.2297 22.8317 49.9447C23.022 49.1705 22.9611 48.3588 22.6569 47.6188C22.562 47.3697 22.4875 47.1152 22.409 46.8473C22.3829 46.7579 22.3563 46.667 22.3284 46.5745C24.7385 45.6703 27.3029 44.4544 28.2047 41.626C28.5578 40.6486 28.5872 39.5902 28.2889 38.5959C27.9903 37.6006 27.3776 36.7184 26.5353 36.0708C25.389 35.1642 24.0499 34.5091 22.6119 34.1518ZM18.636 37.621C18.6834 37.6079 18.7312 37.5957 18.7792 37.5844C20.3482 37.3476 21.9536 37.6631 23.2996 38.4724C23.8928 38.8684 24.1358 39.3083 24.1775 39.7316C24.2206 40.1675 24.0555 40.6397 23.7238 41.0938C23.097 41.9514 21.9532 42.6378 20.92 42.7657C20.1668 41.1009 19.4019 39.3687 18.636 37.621Z" fill="#10151C"/>
<path d="M32.1744 31.1043C33.8825 30.3472 35.9984 30.2164 37.6541 30.7487C38.0711 30.8653 38.4329 31.1175 38.6776 31.462C38.9207 31.8045 39.0329 32.2172 38.9954 32.6297C38.993 32.8975 38.9245 33.161 38.7956 33.3987C38.6645 33.6407 38.4745 33.8488 38.2419 34.0055C38.0092 34.1621 37.7407 34.2628 37.459 34.2987C37.1772 34.3348 36.8906 34.3052 36.6233 34.2124L36.6029 34.2053L36.5838 34.1957C36.4471 34.127 36.3018 34.0753 36.1515 34.0416L36.142 34.0395C34.9773 33.7426 33.8786 34.2346 33.4773 34.8391C33.2859 35.1273 33.2622 35.4183 33.4216 35.683C33.5923 35.9664 34.011 36.2845 34.8583 36.5112C35.0913 36.5726 35.3302 36.6318 35.5724 36.692C36.2424 36.8585 36.9387 37.0315 37.6119 37.2712L37.6145 37.2722C40.7205 38.4064 41.8771 40.7555 41.4811 42.965C41.0894 45.15 39.1882 47.1385 36.329 47.6076C35.2887 47.8289 34.206 47.7858 33.1881 47.4825C32.1677 47.1783 31.2479 46.6233 30.5201 45.8722L30.5012 45.8526C30.2714 45.5696 30.1169 45.2372 30.0484 44.8845C29.9854 44.5662 30.0186 44.2372 30.1439 43.9363C30.2685 43.6373 30.4793 43.3784 30.7512 43.1898C31.0385 42.976 31.3848 42.8477 31.7473 42.821C32.1086 42.7943 32.4701 42.8697 32.7873 43.0376C33.1041 43.1846 33.3989 43.372 33.6634 43.5949L33.6684 43.5989C34.1364 44.0097 34.7025 44.1167 35.2455 44.0176C35.7963 43.917 36.3143 43.6042 36.6475 43.1891C36.9785 42.7767 37.1113 42.2867 36.9536 41.8111C36.795 41.332 36.3178 40.7952 35.2696 40.3464C34.9955 40.2348 34.7114 40.1447 34.4159 40.057C34.3362 40.0334 34.2551 40.0099 34.1731 39.986C33.9546 39.9223 33.7297 39.8567 33.5092 39.7845C33.3574 39.7348 33.2067 39.6877 33.0575 39.641C32.6498 39.5136 32.2523 39.3893 31.8697 39.2227C31.037 38.9506 30.3177 38.4282 29.8187 37.7326C29.3176 37.0344 29.0655 36.1993 29.0998 35.3522C29.1024 33.2879 30.4571 31.8657 32.1744 31.1043Z" fill="#10151C"/>
<path d="M53.8303 30.8846C53.4991 30.7294 53.1329 30.6557 52.7647 30.6701C52.3963 30.6847 52.0376 30.7869 51.7209 30.9679C51.4061 31.1475 51.1425 31.3991 50.9537 31.7002C50.7805 31.9538 50.6607 32.2373 50.6009 32.5351C50.5412 32.8327 50.5427 33.1384 50.6051 33.4353C50.6668 33.8168 50.7352 34.1878 50.8027 34.5536C50.9145 35.1591 51.0233 35.7509 51.0951 36.3544L51.0978 36.3696C51.2612 37.316 51.3467 38.2731 51.3544 39.2322L51.3551 39.2459C51.411 40.2817 51.0433 41.2973 50.3308 42.0773L50.3195 42.0912C50.0877 42.3763 49.7778 42.5939 49.4243 42.7197C49.0709 42.8454 48.6881 42.8743 48.3186 42.8032C47.949 42.732 47.6075 42.5636 47.332 42.3167C47.0565 42.0698 46.8578 41.7532 46.7586 41.4043C46.5469 40.6689 46.4244 39.9125 46.3932 39.1502L46.7549 33.6243C46.7602 33.5522 46.7663 33.4781 46.7725 33.4034C46.7863 33.2355 46.8004 33.0646 46.8062 32.9052C46.8147 32.6706 46.8074 32.4293 46.7505 32.2009C46.6922 31.9675 46.5814 31.7455 46.3847 31.5564C46.19 31.3692 45.9272 31.2311 45.5965 31.1371C44.9984 30.971 44.4927 30.9763 44.0713 31.1479C43.6497 31.3195 43.3608 31.6382 43.1564 32.0063C42.9536 32.3714 42.8233 32.8035 42.7247 33.2364C42.6516 33.5576 42.5928 33.8948 42.5369 34.2157C42.5176 34.3263 42.4987 34.4349 42.4796 34.5404L42.4791 34.5435C42.1803 36.3036 42.0914 38.0907 42.214 39.8702C42.2369 40.8318 42.4458 41.7811 42.8303 42.6694C43.2641 43.8156 44.0498 44.8086 45.0837 45.5175C46.1198 46.2279 47.3562 46.6193 48.6292 46.64C49.9023 46.6606 51.1518 46.3096 52.2124 45.6334C53.2712 44.9582 54.0918 43.9904 54.5657 42.8582C55.2284 41.4159 55.5397 39.8474 55.4755 38.2722C55.4365 37.1221 55.3713 35.9633 55.3064 34.8103C55.2746 34.2447 55.2428 33.6804 55.2143 33.1194C55.2 32.557 55.0067 32.0122 54.6604 31.5582C54.4462 31.2712 54.1609 31.0397 53.8303 30.8846Z" fill="#10151C"/>
<path d="M65.5537 39.5492C65.5201 39.5901 65.4847 39.6325 65.4477 39.6766C65.1783 38.185 64.9286 36.6938 64.6785 35.2004C64.5889 34.6646 64.4987 34.1265 64.4081 33.59L64.3978 33.5301L64.3647 33.4784C64.3023 33.3811 64.2961 33.2856 64.2961 33.0821V33.0586L64.2923 33.0353C64.2247 32.6149 64.0266 32.2238 63.724 31.913C63.4222 31.603 63.0303 31.3873 62.5992 31.2936C62.1688 31.1918 61.7165 31.2142 61.2992 31.3583C60.8831 31.502 60.5204 31.7602 60.2563 32.1006C60.0368 32.3618 59.8568 32.6516 59.722 32.9612C59.416 33.6282 59.1073 34.2968 58.7977 34.9673L58.7924 34.9789C58.0196 36.6526 57.2416 38.3376 56.4862 40.0359L56.4839 40.0414C56.0201 41.1426 55.6373 42.3028 55.2559 43.4595C55.1797 43.6904 55.1035 43.9212 55.0267 44.1514C54.889 44.5164 54.8288 44.9041 54.8495 45.2917C54.8244 45.6387 54.9109 45.9848 55.0976 46.2833C55.2879 46.5879 55.573 46.8275 55.9126 46.9686C56.2725 47.12 56.6749 47.1522 57.0561 47.0599C57.4365 46.9679 57.7743 46.7572 58.0163 46.4609C58.3254 46.096 58.5912 45.698 58.8081 45.2764C59.448 44.0201 60.0596 42.7485 60.6683 41.4824C60.9039 40.9926 61.1328 40.554 61.3932 40.0764C61.4111 40.1353 61.4293 40.1927 61.4482 40.2503C61.7211 41.4035 62.1818 42.5082 62.8132 43.5237C62.9327 43.7388 63.0991 43.9268 63.3011 44.0748C63.5055 44.2246 63.7415 44.3297 63.9925 44.3831C64.2435 44.4365 64.5037 44.4367 64.7548 44.3838C65.0056 44.331 65.2423 44.2258 65.4468 44.0767L65.8517 43.7859L68.9938 41.2456L68.808 42.3821C68.553 43.9444 68.2999 45.4936 68.031 47.0431C67.855 47.7299 67.8553 48.4473 68.0317 49.1339C68.1081 49.5203 68.3028 49.876 68.5909 50.1557C68.8815 50.4377 69.2536 50.6293 69.659 50.7057C70.0645 50.7821 70.4845 50.7398 70.8645 50.5842C71.2391 50.4309 71.5576 50.1746 71.7803 49.8479C72.2984 49.231 72.6209 48.4841 72.7094 47.6961C72.8428 46.5834 72.9935 45.4555 73.1442 44.3279C73.3179 43.0282 73.4915 41.7289 73.6381 40.4545L73.6386 40.4506C73.7798 39.0556 73.848 37.6549 73.8433 36.2533C73.8742 35.8104 73.7593 35.3692 73.5145 34.9921C73.2688 34.6137 72.905 34.3195 72.475 34.1512C72.0277 33.9561 71.527 33.9039 71.0464 34.0025C70.5691 34.1005 70.137 34.342 69.8128 34.6918C69.2333 35.2063 68.6896 35.7568 68.1853 36.3398L68.1818 36.3437C67.6312 37.0022 67.0844 37.6736 66.5411 38.3407C66.2107 38.7463 65.8814 39.1508 65.5537 39.5492Z" fill="#10151C"/>
</g>
<defs>
<clipPath id="clip0_25_115">
<rect width="85.1762" height="52.5556" fill="white" transform="translate(0.824219 0.350708)"/>
</clipPath>
</defs>
</svg>
