<svg width="87" height="58" viewBox="0 0 87 58" fill="none" xmlns="http://www.w3.org/2000/svg">
<g clip-path="url(#clip0_25_173)">
<path d="M81.5632 1.94277C81.5632 2.93147 82.3746 3.73296 83.3755 3.73296H85.1878C86.1888 3.73296 87.0001 2.93147 87.0001 1.94277C87.0001 0.954084 86.1888 0.152588 85.1878 0.152588H83.3755C82.3746 0.152588 81.5632 0.954084 81.5632 1.94277Z" fill="#10151C"/>
<path d="M29.0067 57.4387H37.8105L35.2475 54.9069C34.5678 54.2355 33.6459 53.8583 32.6846 53.8583H29.0067C14.994 53.8583 3.63459 42.6374 3.63459 28.7956C3.63459 14.9539 14.994 3.73298 29.0067 3.73297H58.0033C72.016 3.73297 83.3754 14.9539 83.3754 28.7956C83.3754 42.6374 72.016 53.8583 58.0033 53.8583H47.1563C45.7143 53.8583 44.3314 53.2925 43.3117 52.2854L40.3091 49.3192C38.6098 47.6406 36.3048 46.6975 33.9016 46.6975H29.0067C18.9976 46.6975 10.8838 38.6826 10.8838 28.7956C10.8838 18.9086 18.9976 10.8937 29.0067 10.8937H58.0033C68.0124 10.8937 76.1263 18.9086 76.1263 28.7956C76.1263 38.6826 68.0124 46.6975 58.0033 46.6975H51.0385C49.5965 46.6975 48.2136 46.1317 47.194 45.1246L44.1912 42.1585C42.4919 40.4799 40.1871 39.5368 37.7838 39.5368H29.0067C23.0013 39.5368 18.1329 34.7278 18.1329 28.7956C18.1329 22.8635 23.0013 18.0545 29.0067 18.0545H58.0033C64.0087 18.0545 68.8771 22.8635 68.8771 28.7956C68.8771 34.6554 64.1267 39.4193 58.2226 39.5346L58.2214 39.5368H55.5692C54.1272 39.5368 52.7444 38.9709 51.7247 37.9638L48.7219 34.9977C47.3276 33.6203 45.5256 32.7382 43.5961 32.466L43.505 32.376H29.0067C27.0049 32.376 25.3821 30.773 25.3821 28.7956C25.3821 26.8183 27.0049 25.2153 29.0067 25.2153H58.0033C60.0051 25.2153 61.6279 26.8183 61.6279 28.7956C61.6279 30.773 60.0051 32.376 58.0033 32.376H50.7542L53.3172 34.9078C53.9969 35.5792 54.9188 35.9564 55.8801 35.9564H58.0033C62.0069 35.9564 65.2525 32.7504 65.2525 28.7956C65.2525 24.8409 62.0069 21.6349 58.0033 21.6349H29.0067C25.0031 21.6349 21.7575 24.8409 21.7575 28.7956C21.7575 32.7504 25.0031 35.9564 29.0067 35.9564H42.3145C43.7566 35.9564 45.1394 36.5222 46.1591 37.5293L49.1618 40.4955C50.8612 42.1741 53.166 43.1172 55.5692 43.1172H58.9095V43.0897C66.4946 42.6277 72.5017 36.4045 72.5017 28.7956C72.5017 20.8861 66.0105 14.4741 58.0033 14.4741H29.0067C20.9995 14.4741 14.5083 20.8861 14.5083 28.7956C14.5083 36.7053 20.9995 43.1172 29.0067 43.1172H37.7838C39.2258 43.1172 40.6087 43.683 41.6283 44.6901L44.6311 47.6562C46.3304 49.3348 48.6352 50.2779 51.0385 50.2779H58.0033C70.0142 50.2779 79.7508 40.66 79.7508 28.7956C79.7508 16.9313 70.0142 7.31335 58.0033 7.31335H29.0067C16.9958 7.31335 7.25918 16.9313 7.25918 28.7956C7.25918 40.66 16.9958 50.2779 29.0067 50.2779H33.9016C35.3436 50.2779 36.7265 50.8438 37.7461 51.8509L40.7489 54.817C42.4482 56.4956 44.753 57.4387 47.1563 57.4387H58.0033C74.0178 57.4387 87 44.6148 87 28.7956C87 12.9765 74.0178 0.152587 58.0033 0.152588L29.0067 0.152594C12.9923 0.152595 0.0100084 12.9765 0.0100098 28.7956C0.0100112 44.6148 12.9923 57.4387 29.0067 57.4387Z" fill="#10151C"/>
</g>
<defs>
<clipPath id="clip0_25_173">
<rect width="86.99" height="57.2861" fill="white" transform="translate(0.0100098 0.152588)"/>
</clipPath>
</defs>
</svg>
