<svg width="101" height="55" viewBox="0 0 101 55" fill="none" xmlns="http://www.w3.org/2000/svg">
<g clip-path="url(#clip0_25_111)">
<path d="M100.238 19.8746C100.248 19.7991 100.248 19.7227 100.238 19.6471C100.247 19.5855 100.247 19.5227 100.238 19.461L99.4992 14.1463C99.3927 13.5105 99.1078 12.9162 98.6766 12.4299L98.5499 12.2851L98.3181 12.0576L85.5351 1.26277L85.8937 1.61435C85.6003 1.27023 85.2321 0.994985 84.8159 0.808882C84.3998 0.622777 83.9463 0.530546 83.489 0.538992H79.6077C78.9765 0.526733 78.3598 0.723458 77.8569 1.09736C77.3287 0.72571 76.6929 0.529991 76.0428 0.538992H72.1614C71.6524 0.530896 71.1503 0.654751 70.7058 0.898056C70.2613 1.14136 69.8903 1.49547 69.6303 1.92453C69.2294 2.53735 69.0787 3.27571 69.2083 3.99252L69.6935 7.34264C69.3721 7.16401 69.0083 7.07133 68.6388 7.07383H49.8441C49.1698 7.07798 48.5109 7.27174 47.9456 7.63216C47.3989 7.96764 46.96 8.448 46.68 9.0177L45.2245 7.7976C44.6516 7.27797 43.8955 6.99632 43.1151 7.01178H13.6257C12.949 7.02387 12.2873 7.20921 11.7062 7.54945C10.9112 8.00563 10.3286 8.74735 10.082 9.61743L0.716237 40.327C0.541242 40.833 0.524027 41.3787 0.666798 41.8944C0.809568 42.41 1.10586 42.8724 1.51782 43.2222C1.62516 43.3114 1.73787 43.3943 1.85533 43.4703C1.85533 43.4703 1.66545 43.3462 1.55998 43.2429L14.343 54.0584C14.8837 54.5465 15.5907 54.8193 16.3257 54.8235H46.0472C46.7259 54.8062 47.3881 54.6136 47.9667 54.2651C48.294 54.0898 48.5868 53.8587 48.8316 53.5827L48.937 53.4379L49.1058 53.2312L49.2323 53.0037L50.6246 54.1825C51.1576 54.6511 51.8492 54.909 52.5652 54.9063H82.3498C83.0279 54.8841 83.6888 54.6919 84.2694 54.3479C84.5893 54.1618 84.8804 53.932 85.1343 53.6655L85.2397 53.5207L85.4084 53.314C85.4981 53.1831 85.5759 53.0447 85.6405 52.9002C85.7094 52.7749 85.7659 52.6433 85.8092 52.5074L94.3523 24.4656V24.2174C94.3628 24.1212 94.3628 24.0241 94.3523 23.9279V23.7418C94.3625 23.6801 94.3625 23.6173 94.3523 23.5556C94.3618 23.4249 94.3618 23.2936 94.3523 23.1627H97.0946C97.3331 23.1841 97.5731 23.1841 97.8117 23.1627H98.0016C98.156 23.1175 98.3046 23.055 98.4446 22.9766H98.6556L99.0352 22.6871L99.2039 22.563L99.4992 22.1907V22.0667L99.7102 21.7151C99.6984 21.6468 99.6984 21.5768 99.7102 21.5084C99.699 21.4748 99.699 21.4385 99.7102 21.405C99.755 21.2837 99.7903 21.1592 99.8157 21.0327C99.8058 20.9919 99.8058 20.9494 99.8157 20.9086C99.8054 20.847 99.8054 20.7841 99.8157 20.7225C99.8157 20.7225 100.238 19.916 100.238 19.8746Z" fill="#10151C"/>
<path d="M43.98 9.3695C44.092 9.46877 44.1702 9.59931 44.2041 9.74352C44.2382 9.88773 44.2261 10.0387 44.1699 10.176L34.8253 40.8649C34.7076 41.1999 34.4669 41.48 34.1503 41.6508C33.8927 41.8197 33.5945 41.9195 33.2853 41.9403H3.58512C3.33147 41.9283 3.09118 41.8253 2.9101 41.6508C2.80238 41.553 2.72678 41.4261 2.69296 41.2862C2.65914 41.1462 2.66867 40.9996 2.72026 40.8649L12.086 10.176C12.1939 9.83672 12.4271 9.54912 12.7399 9.3695C13.0018 9.21267 13.2985 9.12043 13.6047 9.10065H43.305C43.5566 9.10303 43.7979 9.19915 43.98 9.3695ZM28.4759 34.6816L34.0658 16.3593H18.4142L12.8453 34.6816H28.4759ZM72.3303 9.67968C72.4316 9.79513 72.5583 9.88669 72.7007 9.94755C72.8432 10.0084 72.9977 10.037 73.153 10.0312H77.0132C77.1602 10.0326 77.305 9.99731 77.4343 9.92856C77.5634 9.85981 77.6725 9.75991 77.7514 9.63832C77.82 9.54334 77.8684 9.43581 77.8938 9.32213C77.9191 9.20846 77.9209 9.09096 77.899 8.97658L77.1397 3.5171C77.0674 3.26443 76.9376 3.03111 76.7601 2.83466C76.6586 2.71921 76.5321 2.62766 76.3896 2.56679C76.2472 2.50593 76.0926 2.47733 75.9374 2.48311H72.0772C71.9302 2.48171 71.7852 2.51705 71.6561 2.58579C71.5269 2.65454 71.4177 2.75443 71.3389 2.87604C71.1912 3.16555 71.1279 3.35166 71.1912 3.5171L71.9717 8.97658C72.0117 9.24241 72.1374 9.48874 72.3303 9.67968ZM84.5859 3.47574C84.5135 3.22305 84.3837 2.98973 84.2062 2.7933C84.1091 2.67827 83.9862 2.58675 83.8472 2.52577C83.7082 2.46481 83.5568 2.43605 83.4046 2.44175H79.5233C79.3788 2.43771 79.2358 2.4721 79.1095 2.54127C78.9833 2.61044 78.8785 2.71183 78.8062 2.83466C78.6658 3.01813 78.605 3.24858 78.6374 3.47574L79.4178 8.93521C79.4668 9.19824 79.5911 9.44213 79.7765 9.63832C79.8796 9.75151 80.0066 9.84153 80.1486 9.90221C80.2906 9.96288 80.4442 9.99278 80.5991 9.98986H84.4804C84.6247 9.99174 84.7667 9.95644 84.8926 9.88747C85.0185 9.81851 85.1237 9.71835 85.1977 9.59697C85.271 9.50445 85.3223 9.39697 85.3479 9.28247C85.3735 9.16797 85.3725 9.04933 85.3452 8.93521L84.5859 3.47574ZM68.9341 11.7477L68.5544 9.05929H49.8442C49.5504 9.07516 49.2662 9.16801 49.0214 9.32812C48.8661 9.41118 48.7309 9.52631 48.6252 9.66554C48.5197 9.80479 48.4462 9.96483 48.4098 10.1346L46.8488 15.2632C46.7865 15.3914 46.7652 15.5352 46.7878 15.6754C46.8105 15.8157 46.8758 15.9459 46.9753 16.0491C47.1532 16.213 47.3854 16.3086 47.6293 16.3179H70.3686L64.7787 34.6403H42.1026C41.8103 34.6468 41.5255 34.7327 41.2801 34.8884C40.9817 35.0742 40.7638 35.3613 40.6683 35.6949L39.0863 40.8235C39.0346 40.9551 39.021 41.0981 39.0471 41.2367C39.0732 41.3755 39.1377 41.5044 39.2338 41.6093C39.4062 41.7842 39.6401 41.8878 39.8878 41.8988H69.6724C69.9804 41.8728 70.2774 41.7735 70.5372 41.6093C70.8487 41.4378 71.0824 41.1571 71.1912 40.8235L79.7553 12.7817H70.1154C69.9624 12.7846 69.8106 12.7568 69.6691 12.6999C69.5276 12.643 69.3996 12.5582 69.2928 12.4508C69.1184 12.2632 68.995 12.0357 68.9341 11.789V11.7477Z" fill="white"/>
</g>
<defs>
<clipPath id="clip0_25_111">
<rect width="99.6743" height="54.3678" fill="white" transform="translate(0.571045 0.538452)"/>
</clipPath>
</defs>
</svg>
